<svg width="16" height="17" viewBox="0 0 16 17" fill="none" xmlns="http://www.w3.org/2000/svg">
<path d="M12.2 11.2889L11.9398 11.6358L12.2464 11.9425L15.3464 15.0425C15.3896 15.0856 15.4307 15.1495 15.4608 15.2246C15.4917 15.3019 15.5 15.3637 15.5 15.3889C15.5 15.5753 15.4401 15.6918 15.3714 15.7604C15.3028 15.829 15.1864 15.8889 15 15.8889C14.9083 15.8889 14.8543 15.8742 14.8156 15.857C14.7747 15.8388 14.724 15.8058 14.6536 15.7354L11.5536 12.6354L11.2469 12.3287L10.9 12.5889C9.78352 13.4263 8.48809 13.8889 7 13.8889C3.37614 13.8889 0.5 11.0128 0.5 7.38892C0.5 3.76506 3.37614 0.888916 7 0.888916C10.6239 0.888916 13.5 3.76506 13.5 7.38892C13.5 8.877 13.0374 10.1724 12.2 11.2889ZM7 1.88892C3.92386 1.88892 1.5 4.31277 1.5 7.38892C1.5 10.4651 3.92386 12.8889 7 12.8889C10.0761 12.8889 12.5 10.4651 12.5 7.38892C12.5 4.31277 10.0761 1.88892 7 1.88892Z" fill="black" stroke="black"/>
</svg>
